<svg width="38" height="21" viewBox="0 0 38 21" fill="none" xmlns="http://www.w3.org/2000/svg">
<g clip-path="url(#clip0_1_18)">
<path d="M0.25 0.25H37.75V20.75H0.25V0.25Z" fill="black" stroke="#F0A738" stroke-width="0.5"/>
<path fill-rule="evenodd" clip-rule="evenodd" d="M3 3H3.40356C3.59726 3 3.86092 3.03228 4.19453 3.09685C4.52814 3.16142 4.83484 3.25828 5.11464 3.38741C5.4052 3.50579 5.685 3.68336 5.95404 3.92011C6.23384 4.1461 6.47059 4.36133 6.6643 4.5658C6.85801 4.75951 7.05171 5.01779 7.24542 5.34063C7.44989 5.66348 7.61131 5.9379 7.72969 6.16389C7.85883 6.38988 7.99873 6.68582 8.14939 7.05171C8.3431 7.51446 8.49914 7.91802 8.61752 8.26239C8.73589 8.59599 8.80046 8.77894 8.81122 8.81122C8.82199 8.84351 8.83813 8.88117 8.85965 8.92422C8.89194 9.01031 8.91884 9.08564 8.94036 9.15021C8.97265 9.07488 9.04798 8.87579 9.16636 8.55295C9.28473 8.2301 9.39235 7.93954 9.4892 7.68126C9.59682 7.42299 9.75824 7.0571 9.97347 6.58359C10.1887 6.11008 10.3824 5.73881 10.5546 5.46977C10.7375 5.18997 10.9689 4.87251 11.2487 4.51738C11.5285 4.16224 11.8083 3.88783 12.0881 3.69412C12.7768 3.23137 13.5086 3 14.2835 3V3.16142C13.6808 3.16142 13.062 3.47889 12.4271 4.11382C11.8029 4.74875 11.2649 5.5182 10.8129 6.42217C10.3716 7.31537 10.0058 8.24624 9.71519 9.21478C9.43539 10.1726 9.29549 10.9904 9.29549 11.6684V14.0413C9.29549 14.4287 9.4623 14.7193 9.7959 14.913C9.95733 15.0099 10.1349 15.0583 10.3286 15.0583H10.5223V15.2197H7.00329V15.0583H7.21314C7.48218 15.0583 7.71893 14.9614 7.9234 14.7677C8.12787 14.574 8.23548 14.3373 8.24624 14.0575V11.6523C8.24624 10.9312 8.09558 10.0865 7.79426 9.11793C7.49294 8.14939 7.10552 7.2239 6.63202 6.34145C6.15851 5.44825 5.59353 4.69494 4.93708 4.08153C4.28062 3.46813 3.63493 3.16142 3 3.16142V3ZM14.9619 10.9259C14.4023 11.6576 14.1225 12.4486 14.1225 13.2988C14.1225 14.3104 14.5476 15.096 15.3978 15.6556C15.8928 15.9892 16.4524 16.156 17.0766 16.156C17.7115 16.156 18.2604 16.0322 18.7231 15.7847C19.5948 15.3327 20.0844 14.574 20.192 13.5086C20.2028 13.4333 20.2082 13.358 20.2082 13.2826C20.2082 12.8845 20.0952 12.454 19.8692 11.9913C19.654 11.5285 19.2988 11.1034 18.8038 10.716L15.8982 8.42381C15.2633 7.92878 14.9458 7.28847 14.9458 6.50288C14.9458 5.71729 15.1987 5.05545 15.7045 4.51738C16.2103 3.96854 16.8936 3.69412 17.7546 3.69412C18.185 3.69412 18.6531 3.74793 19.1589 3.85554H19.8046L19.8369 5.84104H19.6755C19.6647 5.32449 19.4764 4.92093 19.1105 4.63037C18.7554 4.32905 18.3034 4.17839 17.7546 4.17839C17.2165 4.17839 16.7645 4.36133 16.3986 4.72722C16.0327 5.08236 15.8498 5.5451 15.8498 6.11546C15.8498 6.67506 16.0865 7.14319 16.56 7.51984L19.5464 9.87662C20.7301 10.8129 21.322 11.9428 21.322 13.2665C21.322 14.2566 20.9292 15.1067 20.1436 15.817C19.4656 16.4304 18.5617 16.7371 17.4317 16.7371C16.743 16.7371 16.1296 16.608 15.5915 16.3497C14.5799 15.8762 13.9719 15.0691 13.7674 13.9283C13.7351 13.7561 13.719 13.5409 13.719 13.2826C13.719 13.0136 13.7943 12.6531 13.945 12.2011C14.0956 11.7384 14.3862 11.2756 14.8167 10.8129L14.9619 10.9259ZM26.3072 7.32613C26.3072 7.42299 26.3287 7.54136 26.3718 7.68126L26.5332 7.64898C26.5117 7.5306 26.5009 7.37456 26.5009 7.18085C26.5009 6.98715 26.544 6.75577 26.63 6.48674C26.9314 5.57201 27.5502 4.91555 28.4864 4.51738C29.003 4.29138 29.5787 4.17839 30.2136 4.17839C31.6342 4.17839 32.7318 4.6788 33.5067 5.67962C34.2923 6.68044 34.685 7.90726 34.685 9.36006C34.685 11.0389 34.19 12.3948 33.2 13.4279C32.2207 14.4503 30.9562 14.9614 29.4065 14.9614C27.8569 14.9614 26.587 14.4503 25.5969 13.4279C24.6069 12.4056 24.1118 10.9851 24.1118 9.16635C24.1118 8.18706 24.2625 7.26156 24.5638 6.38988C24.8759 5.5182 25.3817 4.85098 26.0812 4.38824L25.9844 4.24296C24.9835 4.74875 24.2141 5.44825 23.676 6.34145C23.1379 7.23466 22.8689 8.25701 22.8689 9.40849C22.8689 11.1949 23.4877 12.6477 24.7253 13.7669C25.9736 14.8861 27.5394 15.4457 29.4227 15.4457C31.3059 15.4457 32.861 14.8861 34.0878 13.7669C35.3146 12.6369 35.928 11.2218 35.928 9.52149C35.928 7.82116 35.4061 6.42755 34.3622 5.34063C33.3291 4.24296 31.9893 3.69412 30.3428 3.69412C29.5249 3.69412 28.8308 3.83402 28.2604 4.11382C27.9914 4.24296 27.7439 4.39362 27.5179 4.5658C27.3026 4.73799 27.1251 4.92631 26.9852 5.13078C26.8453 5.33525 26.7215 5.55048 26.6139 5.77647C26.5063 5.9917 26.431 6.21232 26.3879 6.43831C26.3556 6.6643 26.3341 6.84187 26.3233 6.971C26.3126 7.10014 26.3072 7.21852 26.3072 7.32613ZM3.82 18.47C3.68193 18.47 3.57 18.5819 3.57 18.72C3.57 18.8581 3.68193 18.97 3.82 18.97H35.32C35.4581 18.97 35.57 18.8581 35.57 18.72C35.57 18.5819 35.4581 18.47 35.32 18.47H3.82Z" fill="url(#paint0_linear_1_18)"/>
</g>
<defs>
<linearGradient id="paint0_linear_1_18" x1="3.32" y1="10.72" x2="36.32" y2="10.72" gradientUnits="userSpaceOnUse">
<stop stop-color="#FF9900"/>
<stop offset="1" stop-color="white"/>
</linearGradient>
<clipPath id="clip0_1_18">
<rect width="38" height="21" fill="white"/>
</clipPath>
</defs>
</svg>
