<svg width="32" height="32" viewBox="0 0 32 32" fill="none" xmlns="http://www.w3.org/2000/svg">
<path d="M0.32 0.680829C0.746666 0.653599 1.42667 0.639984 2.36 0.639984C3.26667 0.639984 4.46667 0.844201 5.96 1.25263C7.48 1.63384 8.88 2.24648 10.16 3.09058C11.44 3.93467 12.6133 4.95575 13.68 6.15382C15.6533 8.38658 17.2 11.0686 18.32 14.1999C19.92 9.5438 22 5.97683 24.56 3.49901C26.5067 1.62022 28.6533 0.680829 31 0.680829C31.1067 0.680829 31.2133 0.680829 31.32 0.680829V1.08926C29.9867 1.11649 28.6 1.83805 27.16 3.25395C25.7467 4.64262 24.5067 6.33081 23.44 8.31851C22.3733 10.3062 21.4667 12.3756 20.72 14.5267C20 16.6778 19.5733 18.5429 19.44 20.1222V28.6584C19.44 29.3391 19.68 29.9382 20.16 30.4555C20.6667 30.9729 21.28 31.2316 22 31.2316H22.52V31.64H10.36V31.2316H10.88C11.5733 31.2316 12.16 30.9865 12.64 30.4964C13.1467 29.979 13.4133 29.3664 13.44 28.6584V20.0814C13.12 17.1406 12.16 14.0229 10.56 10.7283C8.72 6.91623 6.65333 4.20696 4.36 2.60046C3.02667 1.64745 1.68 1.14372 0.32 1.08926V0.680829Z" fill="#F0A738"/>
</svg>
