<svg width="300" height="358" viewBox="0 0 300 358" fill="none" xmlns="http://www.w3.org/2000/svg">
<rect x="299.719" y="216.74" width="149.477" height="149.477" transform="rotate(-180 299.719 216.74)" fill="#5055DF"/>
<path fill-rule="evenodd" clip-rule="evenodd" d="M149.755 357.433C232.463 357.433 299.511 290.385 299.511 207.677C299.511 124.97 232.463 57.9219 149.755 57.9219C67.0478 57.9219 0 124.97 0 207.677C0 290.385 67.0478 357.433 149.755 357.433ZM149.755 257.097C177.048 257.097 199.174 234.971 199.174 207.677C199.174 180.384 177.048 158.258 149.755 158.258C122.461 158.258 100.336 180.384 100.336 207.677C100.336 234.971 122.461 257.097 149.755 257.097Z" fill="#22245D"/>
<path fill-rule="evenodd" clip-rule="evenodd" d="M299.999 214.872H150.244V220.862H299.999V214.872ZM299.998 226.852H150.243V232.842H299.998V226.852ZM150.243 238.833H299.998V244.823H150.243V238.833ZM299.998 250.813H150.243V256.804H299.998V250.813ZM150.243 262.793H299.998V268.784H150.243V262.793ZM299.998 274.774H150.243V280.764H299.998V274.774Z" fill="#FF8F8F"/>
<path fill-rule="evenodd" clip-rule="evenodd" d="M220.31 0H226.3V5.99022H220.31V0ZM236.784 0H230.793V5.99022H236.784V0ZM236.782 11.9803H230.792V17.9705H236.782V11.9803ZM230.792 23.9609H236.782V29.9512H230.792V23.9609ZM236.782 35.9414H230.792V41.9316H236.782V35.9414ZM230.792 47.9216H236.782V53.9118H230.792V47.9216ZM236.782 59.9023H230.792V65.8925H236.782V59.9023ZM241.277 0H247.267V5.99022H241.277V0ZM241.275 11.9803H247.265V17.9705H241.275V11.9803ZM247.265 23.9609H241.275V29.9512H247.265V23.9609ZM241.275 35.9414H247.265V41.9316H241.275V35.9414ZM247.265 47.9216H241.275V53.9118H247.265V47.9216ZM241.275 59.9023H247.265V65.8925H241.275V59.9023ZM220.31 11.9803H226.3V17.9705H220.31V11.9803ZM251.76 0H257.75V5.99022H251.76V0ZM251.759 11.9803H257.75V17.9705H251.759V11.9803ZM257.75 23.9609H251.759V29.9512H257.75V23.9609ZM251.759 35.9414H257.75V41.9316H251.759V35.9414ZM257.75 47.9216H251.759V53.9118H257.75V47.9216ZM251.759 59.9023H257.75V65.8925H251.759V59.9023ZM220.31 23.9609H226.3V29.9512H220.31V23.9609ZM262.243 0H268.233V5.99022H262.243V0ZM262.241 11.9803H268.231V17.9705H262.241V11.9803ZM268.231 23.9609H262.241V29.9512H268.231V23.9609ZM262.241 35.9414H268.231V41.9316H262.241V35.9414ZM268.231 47.9216H262.241V53.9118H268.231V47.9216ZM262.241 59.9023H268.231V65.8925H262.241V59.9023ZM220.31 35.9414H226.3V41.9316H220.31V35.9414ZM272.723 0H278.713V5.99022H272.723V0ZM272.723 11.9803H278.713V17.9705H272.723V11.9803ZM278.713 23.9609H272.723V29.9512H278.713V23.9609ZM272.723 35.9414H278.713V41.9316H272.723V35.9414ZM278.713 47.9216H272.723V53.9118H278.713V47.9216ZM272.723 59.9023H278.713V65.8925H272.723V59.9023ZM220.31 47.9216H226.3V53.9118H220.31V47.9216ZM283.208 0H289.198V5.99022H283.208V0ZM283.208 11.9803H289.198V17.9705H283.208V11.9803ZM289.198 23.9609H283.208V29.9512H289.198V23.9609ZM283.208 35.9414H289.198V41.9316H283.208V35.9414ZM289.198 47.9216H283.208V53.9118H289.198V47.9216ZM283.208 59.9023H289.198V65.8925H283.208V59.9023ZM220.31 59.9023H226.3V65.8925H220.31V59.9023ZM293.69 0H299.68V5.99022H293.69V0ZM293.69 11.9803H299.68V17.9705H293.69V11.9803ZM299.68 23.9609H293.69V29.9512H299.68V23.9609ZM293.69 35.9414H299.68V41.9316H293.69V35.9414ZM299.68 47.9216H293.69V53.9118H299.68V47.9216ZM293.69 59.9023H299.68V65.8925H293.69V59.9023Z" fill="#E35962"/>
</svg>
