<svg width="159" height="159" viewBox="0 0 159 159" fill="none" xmlns="http://www.w3.org/2000/svg">
<rect x="149.477" y="149.477" width="149.477" height="149.477" transform="rotate(-180 149.477 149.477)" fill="#FF8F8F"/>
<circle cx="92.0435" cy="92.0435" r="3.04348" fill="white"/>
<circle cx="128.565" cy="92.0435" r="3.04348" fill="white"/>
<circle cx="128.565" cy="101.174" r="3.04348" fill="white"/>
<circle cx="128.565" cy="110.304" r="3.04348" fill="white"/>
<circle cx="128.565" cy="119.435" r="3.04348" fill="white"/>
<circle cx="101.174" cy="92.0435" r="3.04348" fill="white"/>
<circle cx="137.696" cy="92.0435" r="3.04348" fill="white"/>
<circle cx="137.696" cy="101.174" r="3.04348" fill="white"/>
<circle cx="137.696" cy="110.304" r="3.04348" fill="white"/>
<circle cx="137.696" cy="119.435" r="3.04348" fill="white"/>
<circle cx="110.304" cy="92.0435" r="3.04348" fill="white"/>
<circle cx="146.826" cy="92.0435" r="3.04348" fill="white"/>
<circle cx="146.826" cy="101.174" r="3.04348" fill="white"/>
<circle cx="146.826" cy="110.304" r="3.04348" fill="white"/>
<circle cx="146.826" cy="119.435" r="3.04348" fill="white"/>
<circle cx="119.435" cy="92.0435" r="3.04348" fill="white"/>
<circle cx="155.957" cy="92.0435" r="3.04348" fill="white"/>
<circle cx="155.957" cy="101.174" r="3.04348" fill="white"/>
<circle cx="155.957" cy="110.304" r="3.04348" fill="white"/>
<circle cx="155.957" cy="119.435" r="3.04348" fill="white"/>
<circle cx="92.0435" cy="128.565" r="3.04348" fill="white"/>
<circle cx="128.565" cy="128.565" r="3.04348" fill="white"/>
<circle cx="101.174" cy="128.565" r="3.04348" fill="white"/>
<circle cx="137.696" cy="128.565" r="3.04348" fill="white"/>
<circle cx="110.304" cy="128.565" r="3.04348" fill="white"/>
<circle cx="146.826" cy="128.565" r="3.04348" fill="white"/>
<circle cx="119.435" cy="128.565" r="3.04348" fill="white"/>
<circle cx="155.957" cy="128.565" r="3.04348" fill="white"/>
<circle cx="92.0435" cy="101.174" r="3.04348" fill="white"/>
<circle cx="101.174" cy="101.174" r="3.04348" fill="white"/>
<circle cx="110.304" cy="101.174" r="3.04348" fill="white"/>
<circle cx="119.435" cy="101.174" r="3.04348" fill="white"/>
<circle cx="92.0435" cy="137.696" r="3.04348" fill="white"/>
<circle cx="128.565" cy="137.696" r="3.04348" fill="white"/>
<circle cx="101.174" cy="137.696" r="3.04348" fill="white"/>
<circle cx="137.696" cy="137.696" r="3.04348" fill="white"/>
<circle cx="110.304" cy="137.696" r="3.04348" fill="white"/>
<circle cx="146.826" cy="137.696" r="3.04348" fill="white"/>
<circle cx="119.435" cy="137.696" r="3.04348" fill="white"/>
<circle cx="155.957" cy="137.696" r="3.04348" fill="white"/>
<circle cx="92.0435" cy="110.304" r="3.04348" fill="white"/>
<circle cx="101.174" cy="110.304" r="3.04348" fill="white"/>
<circle cx="110.304" cy="110.304" r="3.04348" fill="white"/>
<circle cx="119.435" cy="110.304" r="3.04348" fill="white"/>
<circle cx="92.0435" cy="146.826" r="3.04348" fill="white"/>
<circle cx="128.565" cy="146.826" r="3.04348" fill="white"/>
<circle cx="101.174" cy="146.826" r="3.04348" fill="white"/>
<circle cx="137.696" cy="146.826" r="3.04348" fill="white"/>
<circle cx="110.304" cy="146.826" r="3.04348" fill="white"/>
<circle cx="146.826" cy="146.826" r="3.04348" fill="white"/>
<circle cx="119.435" cy="146.826" r="3.04348" fill="white"/>
<circle cx="155.957" cy="146.826" r="3.04348" fill="white"/>
<circle cx="92.0435" cy="119.435" r="3.04348" fill="white"/>
<circle cx="101.174" cy="119.435" r="3.04348" fill="white"/>
<circle cx="110.304" cy="119.435" r="3.04348" fill="white"/>
<circle cx="119.435" cy="119.435" r="3.04348" fill="white"/>
<circle cx="92.0435" cy="155.957" r="3.04348" fill="white"/>
<circle cx="128.565" cy="155.957" r="3.04348" fill="white"/>
<circle cx="101.174" cy="155.957" r="3.04348" fill="white"/>
<circle cx="137.696" cy="155.957" r="3.04348" fill="white"/>
<circle cx="110.304" cy="155.957" r="3.04348" fill="white"/>
<circle cx="146.826" cy="155.957" r="3.04348" fill="white"/>
<circle cx="119.435" cy="155.957" r="3.04348" fill="white"/>
<circle cx="155.957" cy="155.957" r="3.04348" fill="white"/>
</svg>
