<svg width="16" height="16" viewBox="0 0 16 16" fill="none" xmlns="http://www.w3.org/2000/svg">
<rect width="16" height="16" rx="2" fill="#0A66C2"/>
<path d="M4.84375 5.60352V13H2.86816V5.60352H4.84375ZM2.74512 3.67578C2.74512 3.38867 2.84538 3.15169 3.0459 2.96484C3.24642 2.77799 3.5153 2.68457 3.85254 2.68457C4.18522 2.68457 4.45182 2.77799 4.65234 2.96484C4.85742 3.15169 4.95996 3.38867 4.95996 3.67578C4.95996 3.96289 4.85742 4.19987 4.65234 4.38672C4.45182 4.57357 4.18522 4.66699 3.85254 4.66699C3.5153 4.66699 3.24642 4.57357 3.0459 4.38672C2.84538 4.19987 2.74512 3.96289 2.74512 3.67578ZM8.39844 7.18262V13H6.42969V5.60352H8.27539L8.39844 7.18262ZM8.11133 9.04199H7.57812C7.57812 8.49512 7.64876 8.00293 7.79004 7.56543C7.93132 7.12337 8.12956 6.7474 8.38477 6.4375C8.63997 6.12305 8.94303 5.88379 9.29395 5.71973C9.64941 5.55111 10.0459 5.4668 10.4834 5.4668C10.8298 5.4668 11.1465 5.51693 11.4336 5.61719C11.7207 5.71745 11.9668 5.87695 12.1719 6.0957C12.3815 6.31445 12.541 6.60384 12.6504 6.96387C12.7643 7.32389 12.8213 7.76367 12.8213 8.2832V13H10.8389V8.27637C10.8389 7.94824 10.7933 7.69303 10.7021 7.51074C10.611 7.32845 10.4766 7.20085 10.2988 7.12793C10.1257 7.05046 9.91146 7.01172 9.65625 7.01172C9.39193 7.01172 9.16178 7.06413 8.96582 7.16895C8.77441 7.27376 8.61491 7.4196 8.4873 7.60645C8.36426 7.78874 8.27083 8.00293 8.20703 8.24902C8.14323 8.49512 8.11133 8.75944 8.11133 9.04199Z" fill="white"/>
</svg>
